<?xml version="1.0" standalone="no"?>
<!DOCTYPE svg PUBLIC "-//W3C//DTD SVG 20010904//EN"
 "http://www.w3.org/TR/2001/REC-SVG-20010904/DTD/svg10.dtd">
<svg version="1.0" xmlns="http://www.w3.org/2000/svg"
 width="435.000000pt" height="435.000000pt" viewBox="0 0 435.000000 435.000000"
 preserveAspectRatio="xMidYMid meet">
<metadata>
Created by potrace 1.11, written by Peter Selinger 2001-2013
</metadata>
<g transform="translate(0.000000,435.000000) scale(0.100000,-0.100000)"
fill="#000000" stroke="none">
<path d="M2190 4240 c0 -4 -10 -6 -22 -2 -13 3 -19 1 -15 -5 4 -6 -5 -9 -21
-8 -15 1 -31 0 -36 -3 -5 -3 -30 -6 -55 -7 -25 -1 -53 -4 -61 -8 -8 -3 -26 -8
-40 -11 -50 -8 -72 -18 -59 -27 8 -4 18 -1 26 9 12 15 13 14 3 -6 -6 -12 -15
-20 -20 -17 -5 3 -11 1 -14 -4 -4 -5 -18 -8 -32 -6 -15 1 -28 -3 -31 -12 -3
-8 -12 -12 -19 -9 -8 3 -14 1 -14 -4 0 -8 -33 -23 -53 -25 -4 0 -11 -6 -16
-13 -5 -8 -12 -14 -17 -14 -21 -1 -33 -11 -27 -21 3 -5 1 -7 -5 -3 -6 3 -13 2
-17 -4 -4 -6 -11 -7 -17 -4 -8 5 -9 1 -4 -11 5 -15 4 -16 -9 -5 -9 7 -15 9
-13 4 1 -5 -10 -21 -25 -36 -15 -15 -27 -22 -27 -15 0 7 -4 6 -10 -3 -5 -8
-10 -10 -10 -5 0 6 -5 2 -11 -8 -6 -9 -15 -14 -21 -11 -8 5 -9 1 -4 -11 6 -16
4 -16 -11 -4 -9 8 -14 10 -11 4 3 -5 -4 -19 -15 -30 -11 -11 -17 -14 -13 -7 4
6 3 12 -2 12 -6 0 -13 -7 -16 -16 -3 -9 -12 -14 -18 -12 -7 3 -18 -1 -25 -8
-16 -16 -17 -28 -1 -18 15 9 -25 -48 -45 -65 -12 -9 -16 -8 -20 3 -4 10 -1 13
7 10 7 -3 19 2 26 11 7 8 9 15 4 15 -5 0 -3 4 5 9 8 5 9 11 3 15 -6 3 -13 -3
-17 -14 -3 -11 -12 -20 -19 -20 -17 0 -48 -35 -39 -43 5 -6 -8 -10 -27 -9 -3
0 -6 -15 -7 -33 -1 -22 3 -35 13 -39 10 -4 12 -2 8 6 -5 8 -2 9 10 5 9 -4 14
-3 11 2 -3 5 -1 12 5 16 5 3 10 13 10 21 0 8 -5 12 -10 9 -6 -4 -7 -11 -4 -17
5 -7 2 -8 -6 -3 -8 5 -11 4 -7 -2 4 -6 0 -14 -8 -17 -13 -5 -14 -2 -4 15 9 17
8 20 -2 14 -8 -5 -10 -4 -5 4 4 6 11 9 16 6 5 -3 11 -1 15 4 3 6 12 8 19 5 8
-3 17 0 21 5 3 6 11 9 16 5 5 -3 7 -10 3 -15 -3 -5 -9 -7 -14 -4 -4 3 -11 -2
-14 -11 -4 -10 -2 -13 7 -8 6 4 -4 -8 -23 -26 -19 -19 -35 -37 -35 -42 0 -5
-7 -13 -15 -18 -11 -7 -11 -10 -2 -10 7 0 10 -5 7 -10 -4 -6 -11 -7 -17 -4 -7
4 -8 2 -4 -5 4 -6 11 -9 16 -6 5 3 11 1 15 -5 3 -5 1 -11 -4 -11 -6 -1 -15 -2
-20 -3 -5 0 -13 -5 -18 -10 -5 -5 -3 -6 5 -2 7 4 12 1 12 -8 0 -9 -4 -16 -10
-16 -5 0 -10 -9 -10 -20 0 -11 -4 -20 -10 -20 -5 0 -10 -8 -10 -18 0 -10 -9
-28 -20 -39 -14 -15 -16 -23 -7 -26 7 -3 1 -6 -13 -6 -20 -1 -22 -3 -10 -11
11 -7 11 -10 2 -10 -8 0 -10 -5 -6 -12 6 -10 4 -10 -8 0 -14 11 -16 10 -14 -5
2 -10 -5 -34 -15 -53 -11 -19 -19 -40 -19 -47 0 -7 -5 -13 -11 -13 -5 0 -7 -4
-4 -10 3 -5 2 -10 -3 -10 -9 0 -20 -28 -28 -70 -2 -8 -8 -16 -13 -18 -6 -2
-11 -10 -11 -18 0 -9 -5 -12 -10 -9 -6 4 -9 3 -8 -2 4 -14 -13 -53 -23 -53 -5
0 -9 -6 -9 -13 0 -7 -8 -22 -17 -33 -10 -11 -19 -26 -21 -34 -2 -8 -9 -18 -15
-22 -7 -4 -7 -8 -2 -8 6 0 3 -6 -6 -13 -33 -25 -59 -142 -53 -236 3 -35 10
-71 17 -80 10 -12 9 -13 -3 -6 -13 7 -13 6 -2 -7 7 -9 14 -27 16 -40 1 -13 7
-32 13 -43 6 -11 9 -30 8 -42 -1 -13 2 -23 6 -23 8 0 8 -4 9 -82 0 -93 -3
-123 -13 -135 -6 -9 -6 -13 0 -13 11 0 9 -81 -1 -99 -4 -5 -2 -12 3 -15 5 -3
6 -21 1 -40 -4 -19 -5 -38 -1 -41 5 -6 8 -42 13 -152 1 -18 4 -33 8 -33 3 0 6
-10 7 -22 1 -13 4 -34 7 -48 14 -58 18 -115 22 -270 2 -91 5 -184 7 -208 1
-24 0 -45 -4 -48 -11 -7 15 -69 41 -96 45 -48 50 -57 50 -83 0 -14 5 -25 11
-25 5 0 8 -4 4 -9 -3 -6 1 -16 8 -23 8 -7 12 -20 9 -30 -2 -10 0 -18 6 -18 6
0 18 -22 27 -50 9 -27 21 -52 26 -55 5 -4 9 -14 9 -23 1 -9 13 -33 28 -53 128
-170 139 -189 111 -189 -5 0 -7 6 -3 13 4 6 3 9 -1 4 -5 -4 -10 -16 -12 -27
-3 -20 -80 -139 -108 -167 -8 -8 -15 -18 -15 -23 0 -5 -17 -25 -37 -44 -21
-19 -59 -55 -86 -80 -26 -25 -54 -46 -62 -46 -8 0 -15 -4 -15 -10 0 -5 -5 -10
-12 -10 -12 0 -140 -54 -168 -71 -8 -5 -22 -12 -30 -15 -8 -4 -38 -17 -66 -31
-28 -13 -62 -26 -75 -28 -13 -3 -35 -7 -49 -10 -91 -19 -166 -27 -360 -40 -67
-4 -187 -29 -199 -40 -2 -3 973 -5 2167 -5 1351 0 2172 4 2172 9 0 6 -3 12 -8
15 -14 9 -127 22 -262 31 -92 6 -105 8 -135 18 -11 3 -31 8 -45 11 -21 4 -120
38 -180 63 -8 3 -23 8 -32 9 -25 5 -172 76 -179 87 -3 5 -9 8 -13 7 -33 -11
-76 19 -191 134 -69 69 -125 129 -125 135 0 5 -6 16 -14 23 -7 8 -21 28 -30
46 -9 18 -37 52 -61 76 -52 50 -55 72 -21 132 13 22 26 54 30 70 4 16 11 31
15 34 4 3 17 46 28 95 21 87 53 185 72 215 8 12 13 12 35 1 14 -8 24 -17 23
-20 -1 -3 4 -16 11 -27 6 -12 9 -24 7 -28 -3 -3 -2 -4 2 -1 3 3 12 -3 19 -12
8 -12 26 -18 53 -18 54 0 81 30 86 91 2 30 9 50 21 59 11 7 16 17 12 20 -4 4
-1 20 8 36 8 16 13 30 12 31 -2 2 7 17 19 34 12 17 20 34 16 38 -3 3 -2 6 4 6
5 0 10 6 10 13 0 7 12 38 26 69 15 31 27 62 27 67 0 6 4 11 10 11 5 0 7 7 4
15 -4 8 -2 15 4 15 9 0 25 37 23 53 -1 4 3 7 7 7 4 0 8 10 9 22 1 12 9 25 17
30 8 5 18 24 22 43 3 19 10 35 14 35 7 0 22 31 25 50 0 3 3 10 6 15 6 9 21 61
23 77 1 3 4 10 8 14 4 4 3 13 -3 20 -7 8 -6 14 2 20 8 5 9 3 4 -6 -5 -9 -4
-11 4 -6 9 6 9 11 1 21 -8 10 -8 15 1 20 8 6 7 10 -2 16 -8 5 -9 9 -4 9 6 0
11 9 12 20 1 13 -2 18 -9 14 -7 -5 -8 -2 -3 7 12 18 7 69 -8 88 -10 12 -9 13
3 6 13 -8 13 -7 1 8 -11 14 -11 17 0 17 9 0 10 3 3 8 -6 4 -10 27 -9 52 1 25
-2 55 -6 67 -5 14 -4 23 4 27 9 3 9 5 0 5 -6 1 -9 10 -6 20 3 10 0 28 -6 39
-8 15 -6 23 9 37 10 9 23 14 29 11 6 -4 8 4 5 20 -3 16 -1 23 6 19 6 -4 7 1 3
11 -5 13 -3 15 8 9 12 -8 12 -6 0 8 -9 11 -10 17 -2 17 6 0 11 6 11 13 0 8 -7
14 -15 14 -9 0 -14 -5 -12 -11 3 -6 -3 -20 -12 -30 -11 -14 -12 -17 -2 -11 10
5 12 4 7 -3 -12 -20 -26 -13 -24 12 1 14 6 22 12 19 5 -4 6 -1 1 7 -12 20 -12
110 0 110 5 0 4 4 -4 9 -9 6 -10 11 -2 15 11 7 15 -6 12 -33 -2 -8 2 -10 11
-5 10 6 10 4 -1 -9 -9 -11 -10 -17 -2 -17 6 0 11 -7 11 -16 0 -9 -5 -12 -12
-8 -10 6 -10 4 0 -8 7 -9 22 -15 33 -13 11 2 17 0 15 -4 -3 -4 1 -8 8 -8 7 0
13 6 13 13 0 7 -4 11 -9 8 -4 -3 -8 0 -8 5 0 6 4 11 9 11 4 0 -3 29 -17 65
-14 35 -29 62 -33 60 -4 -3 -5 4 -2 15 3 11 1 20 -5 20 -5 0 -13 11 -16 25 -4
17 -11 23 -19 18 -8 -4 -7 -1 2 10 11 14 11 18 -3 23 -9 3 -13 10 -10 15 5 8
-9 13 -28 10 -4 0 -5 5 -2 13 3 8 0 17 -5 21 -6 3 -9 11 -6 16 3 5 -2 6 -11 2
-11 -4 -15 -2 -11 4 4 6 0 14 -8 17 -8 3 -14 11 -13 18 2 7 -3 12 -10 10 -8
-1 -11 1 -8 6 8 13 -24 53 -36 46 -6 -4 -8 -3 -5 3 3 5 -7 24 -22 41 -16 17
-26 33 -23 36 3 3 0 6 -7 6 -7 0 -9 5 -6 10 3 6 1 10 -5 10 -6 0 -8 5 -5 10 3
6 2 10 -4 10 -12 0 -71 59 -71 71 0 6 -12 22 -27 36 -16 14 -21 22 -13 17 13
-7 13 -6 0 6 -9 9 -25 28 -34 43 -10 15 -25 27 -33 27 -8 0 -11 5 -8 10 3 6 0
10 -8 10 -8 0 -22 9 -32 20 -10 11 -22 20 -27 20 -5 0 -16 7 -24 15 -9 8 -12
15 -9 15 4 0 -2 16 -14 36 -12 19 -15 32 -9 28 12 -7 -18 34 -33 46 -4 3 -21
16 -38 29 -17 13 -31 29 -31 35 0 15 -38 38 -50 31 -6 -4 -10 1 -10 9 0 9 -7
16 -16 16 -9 0 -28 13 -43 28 -14 16 -34 28 -44 26 -9 -1 -15 2 -11 7 3 5 -3
12 -13 16 -10 4 -24 13 -31 20 -8 7 -17 11 -21 8 -5 -2 -17 4 -28 14 -11 11
-35 27 -53 36 -19 10 -40 23 -47 29 -30 27 -43 36 -48 36 -11 0 -34 27 -29 33
3 3 -4 8 -15 12 -19 6 -22 10 -21 30 1 11 -25 33 -32 28 -5 -2 -8 1 -8 6 0 6
-11 21 -25 33 -13 11 -22 26 -18 31 3 6 1 7 -5 3 -7 -4 -12 -3 -12 3 0 5 -9
13 -20 16 -11 3 -20 13 -20 20 0 9 -6 12 -17 8 -11 -4 -14 -3 -9 5 4 7 1 12
-8 12 -8 0 -20 8 -25 18 -6 9 -11 13 -11 9 0 -4 -10 1 -22 13 -12 11 -32 20
-45 20 -13 0 -23 5 -23 10 0 6 -3 9 -7 9 -25 -4 -43 2 -37 12 4 7 1 10 -7 7
-8 -3 -22 -1 -33 4 -14 8 -17 7 -11 -3 6 -8 4 -10 -6 -3 -19 12 -39 14 -39 4z
m1633 -1610 c-3 -12 -8 -19 -11 -16 -5 6 5 36 12 36 2 0 2 -9 -1 -20z m-56
-135 c1 0 -6 -6 -15 -12 -15 -9 -18 -7 -18 13 0 19 3 21 16 11 8 -6 16 -12 17
-12z m-523 -1271 c5 -14 4 -15 -9 -4 -17 14 -19 20 -6 20 5 0 12 -7 15 -16z"/>
<path d="M1226 3692 c-3 -4 4 -9 15 -9 23 -2 25 3 4 10 -8 4 -16 3 -19 -1z"/>
<path d="M1235 3659 c-4 -6 -5 -12 -2 -15 2 -3 7 2 10 11 7 17 1 20 -8 4z"/>
<path d="M1175 3519 c-4 -6 -5 -12 -2 -15 2 -3 7 2 10 11 7 17 1 20 -8 4z"/>
<path d="M3825 2561 c-6 -11 9 -23 19 -14 9 9 7 23 -3 23 -6 0 -12 -4 -16 -9z"/>
<path d="M3752 2457 c-6 -7 -7 -18 -3 -26 7 -10 10 -8 16 8 8 27 2 36 -13 18z"/>
</g>
</svg>
